<?xml version="1.0" encoding="UTF-8" standalone="no"?><!DOCTYPE svg PUBLIC "-//W3C//DTD SVG 1.1//EN" "http://www.w3.org/Graphics/SVG/1.1/DTD/svg11.dtd"><svg width="100%" height="100%" viewBox="0 0 5567 5567" version="1.1" xmlns="http://www.w3.org/2000/svg" xmlns:xlink="http://www.w3.org/1999/xlink" xml:space="preserve" xmlns:serif="http://www.serif.com/" style="fill-rule:evenodd;clip-rule:evenodd;stroke-linejoin:round;stroke-miterlimit:2;"><rect id="Artboard1" x="0" y="0" width="5566.667" height="5566.667" style="fill:none;"/><rect x="0" y="0" width="5566.667" height="5566.667" style="fill:#1a4378;"/><path d="M3535.842,3541.829c1.533,-44.95 -1.308,-44.196 -5.796,-88.838c4.488,44.637 7.967,43.912 5.796,88.838Z" style="fill:#fff;"/><path d="M3530.046,3452.992c-1.129,-11.242 -4.55,-15.433 6.579,-17.2c52.812,-8.388 39.171,113.892 38.017,124.217c-7.404,66.383 24.421,104.696 -0.363,107.742c-46.688,5.733 -39.1,-115.408 -38.442,-125.921c1.533,-44.95 -1.308,-44.196 -5.796,-88.838l0.004,0Zm0,0c-1.129,-11.242 -4.55,-15.433 6.579,-17.2c52.812,-8.388 39.171,113.892 38.017,124.217c-7.404,66.383 24.421,104.696 -0.363,107.742c-46.688,5.733 -39.1,-115.408 -38.442,-125.921c1.533,-44.95 -1.308,-44.196 -5.796,-88.838l0.004,0Z" style="fill:#fff;"/><path d="M3535.842,3541.829c1.533,-44.95 -1.308,-44.196 -5.796,-88.838c4.488,44.637 7.967,43.912 5.796,88.838Zm0,0c1.533,-44.95 -1.308,-44.196 -5.796,-88.838c4.488,44.637 7.967,43.912 5.796,88.838Z" style="fill:#fff;"/><path d="M3485.833,1353.325l2.592,35.454c-6.658,-7.675 -92.296,-106.371 -53.088,-115.354c19.608,-4.492 29.675,27.921 45.592,49.45c13.308,18.004 4.421,27.437 4.904,30.45Z" style="fill:#fff;"/><path d="M3485.833,1353.325l2.592,35.454c-6.658,-7.675 -92.296,-106.371 -53.088,-115.354c19.608,-4.492 29.675,27.921 45.592,49.45c13.308,18.004 4.421,27.437 4.904,30.45Z" style="fill:#fff;"/><path d="M568.817,2654.669c56.062,-619.213 255.237,-933.535 429.38,-1184.669c111.224,-160.396 325.006,-369.065 483.724,-481.863c557.632,-396.289 1057.466,-417.151 1278.329,-421.462c771.861,-15.065 1285.919,388.089 1379.438,461.322c765.994,599.847 831.159,1380.738 850.88,1556.929c23.364,208.722 -2.848,457.088 -12.526,513.613c-22.984,134.274 -42.609,260.445 -122.275,468.135c-56.357,146.917 -306.157,789.249 -1052.42,1179.184c-636.565,332.616 -1176.683,249.959 -1399.543,216.639c-349.204,-52.208 -748.549,-243.266 -1009.403,-459.076c-767.384,-634.873 -800.086,-1410.769 -816.5,-1517.056c-9.356,-60.567 -14.371,-65.548 -9.085,-331.694l0,-0.003Zm3271.883,1009.386c8.774,75.635 -0.089,76.037 -34.034,127.561c-25.934,39.372 -11.447,42.916 -8.551,107.399c0.14,3.133 -3.238,46.477 47.556,65.455c19.636,7.337 77.632,-17.637 93.567,-40.491c11.471,-16.452 3.334,-19.787 96.932,-229.747c34.065,-76.415 25.784,-103.523 55.272,-136.073c6.206,-6.849 22.706,-25.064 2.68,-113.939c-6.47,-28.704 -30.474,-66.868 -48.706,-14.86c-10.03,28.608 -29.792,27.463 -38.022,43.351c-16.647,32.138 -18.205,44.44 -74.644,72.762c-40.675,20.411 -91.02,19.618 -92.051,118.582Zm-410.152,-2019.994c10.355,3.099 18.263,11.86 28.618,14.959c8.959,2.681 13.186,-12.563 13.597,-14.053c15.644,-56.455 -2.783,-99.478 -6.189,-107.425c-18.972,-44.29 -38.768,-18.526 -92.109,-33.363c-50.027,-13.914 -52.752,-17.992 -99.055,5.356c-50.13,25.279 -76.259,-7.881 -144.248,-17.056c-36.238,-4.891 -34.633,-9.975 -69.598,-19.635c-54.337,-15.012 -76.379,-56.316 -128.731,-31.919c-49.897,23.252 -35.314,51.219 -33.808,66.467c2.027,20.531 -15.791,37.511 -24.962,40.331c-22.963,7.065 -22.641,0.382 -43.321,-12.016c-52.379,-31.398 -95.104,-21.822 -109.609,-45.007c-10.372,-16.582 -2.119,-30.453 -75.688,-49.789c-22.528,-5.92 -42.763,2.817 -84.592,-17.484c-3.759,-1.825 -46.494,-22.568 -46.929,-22.92c-30.864,-24.928 48.285,-35.5 19.865,-88.305c-1.924,-3.577 -5.303,-6.391 -6.792,-10.158c-7.569,-19.144 5.542,-29.285 5.457,-30.044c-0.77,-6.713 -8.226,-10.907 -12.481,-16.257c-21.224,-26.686 -55.128,-14.11 -59.688,-12.417c-60.615,22.489 -64.285,0.713 -127.868,14.989c-37.217,8.356 -38.094,-9.978 -99.746,0.949c-6.778,1.201 -78.351,13.884 -84.544,16.008c-73.031,25.047 -100.342,63.772 -144.83,58.27c-60.571,-7.493 -64.713,5.684 -89.798,-13.469c-38.758,-29.593 -50.144,2.645 -64.699,35.364c-27.129,60.982 -79.912,44.506 -109.273,98.847c-23.593,43.666 -22.881,44.37 -24.62,93.93c-0.199,5.701 -14.018,66.951 -108.109,102.338c-44.971,16.914 -38.45,36.001 -61.115,61.848c-27.612,31.488 -28.084,31.289 -43.701,69.944c-15.627,38.689 -34.523,41.556 -49.428,72.423c-35.218,72.924 -37.454,71.773 -39.888,78.353c-16.219,43.889 20.762,40.978 18.201,85.053c-1.633,28.06 -0.243,27.722 5.515,55.171c10.071,48.01 -26.219,132.114 -30.186,139.305c-14.439,26.169 -14.515,27.542 -5.231,56.05c12.45,38.224 -16.257,69.457 35.663,105.959c45.556,32.026 38.611,38.46 78.005,77.248c31.412,30.927 29.101,58.045 37.063,76.415c14.237,32.858 17.715,30.947 49.558,49.437c83.969,48.753 70.515,67.751 157.729,110.432c47.087,23.043 47.354,-9.537 145.108,-22.598c82.456,-11.017 86.043,27.3 155.466,-1.351c64.853,-26.766 65.042,-26.096 70.584,-28.611c26.623,-12.082 25.448,-18.576 102.375,-21.795c83.561,-3.494 74.082,47.765 95.597,71.637c34.39,38.158 93.389,-11.87 132.366,10.801c71.063,41.337 27.67,128.623 25.931,137.526c-17.688,90.551 -25.007,89.091 -24.37,97.059c0.883,11.077 27.29,57.7 32.969,64.31c58.298,67.884 73.363,59.787 98.853,141.804c19.889,63.995 41.455,60.129 34.356,125.371c-6.21,57.053 50.185,91.739 1.647,151.039c-44.485,54.348 -53.358,106.158 -64.128,182.062c-8.479,59.777 21.847,74.089 32.969,98.137c63.392,137.055 64.442,136.942 64.87,149.944c1.605,48.836 1.462,48.651 13.101,96.468c8.212,33.734 -2.42,70.256 46.426,134.351c29.618,38.861 27.68,39.751 43.259,85.143c17.551,51.143 40.894,48.305 26.804,100.633c-0.52,1.928 -3.93,14.601 -1.226,24.868c10.722,40.67 12.546,42.694 52.177,59.863c40.685,17.627 90.25,-25.674 158.896,-22.774c99.469,4.201 140.295,-10.615 237.467,-109.393c65.22,-66.298 52.29,-77.115 90.367,-106.304c6.929,-5.309 38.22,-29.298 49.39,-95.702c4.549,-27.051 1.362,-27.211 1.763,-29.547c7.411,-43.208 91.376,-33.243 105.734,-82.206c19.239,-65.611 -3.998,-132.598 -4.714,-137.609c-8.442,-58.924 58.558,-75.702 76.249,-97.241c52.543,-63.965 87.676,-50.24 126.732,-84.658c60.153,-53.008 38.022,-82.647 48.672,-219.171c2.947,-37.78 -12.122,-35.978 -21.138,-54.63c-15.743,-32.563 -13.282,-102.889 -12.967,-111.892c0.712,-20.335 -16.562,-30.293 -19.975,-39.611c-6.898,-18.838 16.065,-66.925 26.77,-81.98c28.447,-40.016 26.698,-53.96 38.498,-71.03c16.527,-23.909 27.851,-14.468 75.25,-80.338c64.727,-89.948 136.156,-125.856 152.481,-140.805c100.873,-92.357 122.367,-149.608 133.855,-178.525c18.694,-47.061 26.027,-45.199 36.618,-71.252c24.599,-60.504 28.875,-59.591 33.698,-124.784c4.936,-66.732 -34.65,-18.503 -76.537,-12.168c-119.512,18.068 -118.331,23.355 -128.734,24.725c-49.883,6.57 -57.767,29.494 -92.075,-6.72c-18.705,-19.744 -20.06,-20.206 -20.492,-46.918c-0.312,-19.27 0.767,-20.866 -31.655,-53.864c-75.099,-76.442 -89.244,-75.977 -106.904,-90.313c-52.807,-42.86 -12.868,-80.852 -85.766,-139.102c-56.894,-45.465 -10.164,-123.639 -80.665,-181.939c-38.234,-31.617 -15.911,-44.595 -43.468,-85.076c-45.943,-67.499 -33.777,-73.684 -78.803,-141.721c-5.47,-6.112 -75.828,-84.714 -43.615,-91.869c16.11,-3.577 24.38,22.236 37.457,39.382c10.934,14.339 3.632,21.851 4.029,24.251l0.01,-0.007Z" style="fill:#fff;"/></svg>