<?xml version="1.0" encoding="UTF-8" standalone="no"?><!DOCTYPE svg PUBLIC "-//W3C//DTD SVG 1.1//EN" "http://www.w3.org/Graphics/SVG/1.1/DTD/svg11.dtd"><svg width="100%" height="100%" viewBox="0 0 3895 1336" version="1.1" xmlns="http://www.w3.org/2000/svg" xmlns:xlink="http://www.w3.org/1999/xlink" xml:space="preserve" xmlns:serif="http://www.serif.com/" style="fill-rule:evenodd;clip-rule:evenodd;stroke-linejoin:round;stroke-miterlimit:2;"><path d="M1657.208,1004.147c0.048,0.066 -1.227,4.522 3.814,5.252c6.37,0.923 36.093,0.468 68.291,22.554c54.91,37.666 36.523,108.809 -26.26,129.961c-44.565,15.014 -59.643,12.061 -258.1,12.451c-24.219,0.048 -33.856,1.344 -34.1,-7.544c-0.342,-12.421 20.531,-7.409 38.283,-8.16c11.673,-0.493 9.534,-5.98 9.506,-50.19l-0.026,-216.669c0.002,-1.216 0.02,-13.007 -2.386,-15.012c-6.208,-5.173 -41.787,2.965 -44.629,-5.809c-3.718,-11.477 7.209,-11.942 8.378,-11.992c0.582,-0.025 185.141,-0.438 208.289,0.177c136.859,3.637 135.126,92.317 95.903,120.194c-25.915,18.419 -37.221,19.073 -57.84,22.126l-4.498,1.312c-1.121,0.398 -2.235,0.795 -4.625,1.349Zm-45.277,-6.597c4.091,-0.898 34.027,-4.634 38.399,-43.076c1.574,-13.842 4.451,-49.01 -14.375,-66.036c-20.291,-18.351 -79.458,-12.725 -81.275,-11.341c-2.768,2.108 -2.702,2.885 -2.655,85.538c0.018,31.845 -2.371,37.365 9.601,37.5c33.863,0.383 46.34,-1.87 50.305,-2.586Zm4.065,22.139c-14.716,-2.295 -14.585,-3.164 -37.7,-3.256c-19.648,-0.078 -26.301,-3.082 -26.364,12.86c-0.038,9.68 -0.456,115.5 0.054,121.002c0.856,9.242 10.222,7.589 13.803,7.566c35.392,-0.23 86.882,3.455 92.796,-45.065c8.56,-70.228 -14.458,-87.002 -42.589,-93.107Zm758.136,154.64c-21.201,-0.061 -32.39,1.872 -32.725,-7.541c-0.646,-18.162 27.158,3.942 47.299,-27.887c8.142,-12.866 62.749,-127.89 68.062,-139.08c5.372,-11.316 64.328,-135.498 67.357,-141.35c5.921,-11.44 28.718,-6.082 31.421,-2.66c3.185,4.031 138.719,296.451 139.968,298.082c8.877,11.594 40.354,-2.666 40.114,12.899c-0.137,8.88 -10.834,7.538 -15.674,7.548c-12.995,0.028 -157.447,0.337 -162.437,-0.107c-1.068,-0.095 -11.084,-0.988 -7.347,-11.203c2.458,-6.718 23.037,-4.099 36.473,-4.349c14.836,-0.276 4.215,-10.83 -18.133,-62.074c-6.736,-15.445 -10.821,-11.685 -27.694,-11.67c-97.178,0.088 -98.773,-1.232 -102.206,4.117c-1.004,1.565 -21.001,43.864 -21.469,44.981c-12.149,29.022 29.583,24.354 36.13,24.781c9.133,0.596 7.893,9.424 6.984,11.547c-2.018,4.711 -3.836,3.839 -86.123,3.966Zm94.005,-145.832c-1.408,2.733 -17.144,33.284 -17.028,34.443c0.556,5.572 6.809,4.244 73.016,4.284c15.227,0.009 26.041,1.597 26.9,-4.067c1.248,-8.231 -3.851,-6.96 -41.025,-95.635c-3.603,-8.594 -5.861,-8.78 -6.749,-8.853c-4.615,-0.38 -3.382,1.911 -10.073,15.589c-17.98,36.753 -23.252,49.807 -25.041,54.239Zm1256.097,35.423c29.051,-1.678 35.552,-0.191 35.636,-13.808c0.216,-34.877 0.485,-45.583 -11.177,-53.469c-13.826,-9.35 -71.201,-6.714 -54.447,16.494c13.776,19.083 -3.736,45.654 -45.389,38.323c-25.908,-4.559 -43.195,-33.293 -2.77,-57.772c39.146,-23.703 175.498,-29.92 191.679,18.553c5.362,16.063 -1.062,115.434 3.715,125.135c9.28,18.848 25.94,3.094 31.616,6.238c19.214,10.645 -12.997,31.447 -36.656,34.536c-51.041,6.664 -68.709,-21.812 -70.991,-23.239c-7.397,-4.626 -22.958,17.694 -62.404,23.023c-94.307,12.739 -121.093,-54.711 -70.332,-89.922c20.587,-14.281 75.701,-22.826 91.52,-24.093Zm12.25,14.094c-5.17,0.695 -40.886,3.641 -48.356,30.897c-5.555,20.269 13.359,48.853 44.019,40.28c29.168,-8.156 27.654,-32.351 27.758,-57.374c0.005,-1.22 0.054,-13.106 -3.328,-14.886c-0.124,-0.065 -0.145,-1.803 -20.093,1.084Zm-267.901,-577.725c0.905,14.236 4.25,27.247 -7.01,27.668c-15.073,0.563 -249.178,-1.081 -254.358,0.83c-4.428,1.633 -6.229,2.903 -4.098,58.859c1.871,49.129 12.144,104.667 108.412,98.584c64.267,-4.061 104.037,-42.146 117.095,-65.053c13.589,-23.838 14.266,-24.037 16.549,-24.706c2.53,-0.742 29.497,-0.397 23.409,15.657c-1.537,4.052 -15.22,31.141 -33.371,49.094c-45.474,44.977 -99.057,49.743 -114.91,52.9c-8.121,1.617 -72.921,9.076 -125.198,-6.16c-1.982,-0.578 -51.221,-10.487 -92.609,-44.298c-82.521,-67.414 -82.033,-199.357 31.133,-261.514c96.044,-52.752 234.274,-42.372 295.909,21.804c27.705,28.847 37.455,69.664 39.048,76.336Zm-266.085,-12.652c0.435,6.803 -1.454,7.603 2.224,11.032c2.915,2.718 4.715,1.614 102.73,2.033c9.591,0.041 20.342,2.499 20.763,-8.902c2.269,-61.515 -8.528,-74.067 -12.698,-78.914c-23.019,-26.759 -88.356,-24.043 -104.649,11.907c-8.736,19.276 -8.083,43.846 -8.369,62.844Zm-390.945,228.079c-18.624,1.875 -80.655,6.632 -121.046,-36.131c-8.259,-8.744 -8.402,-14.814 -13.476,-9.973c-1.977,1.886 -1.012,2.18 -0.75,4.87c2.839,29.139 -3.127,31.031 -5.59,31.812c-4.314,1.368 -189.694,0.991 -191.652,0.288c-5.503,-1.975 -5.479,-23.189 0.079,-25.389c5.342,-2.115 48.845,1.154 53.195,-2.107c5.601,-4.198 2.631,-6.103 2.999,-299.782c0.018,-14.662 0.217,-173.398 -0.012,-183.272c-0.275,-11.851 -8.949,-8.501 -48.677,-8.888c-12.595,-0.123 -12.908,-3.589 -12.598,-16.176c0.381,-15.437 10.744,-7.371 75.167,-10.762c12.543,-0.66 36.509,-0.253 66.307,-3.618c2.279,-0.257 36.778,-2.644 54.523,-6.092c7.65,-1.486 10.99,-3.884 11.709,3.943c0.126,1.376 0.102,232.999 0.016,237.379c-0.055,2.816 -0.215,5.629 -0.275,8.445c-0.391,18.18 12.076,0.92 17.944,-3.927c53.912,-44.534 191.673,-44.741 256.503,54.784c27.588,42.353 38.417,117.865 3.432,175.152c-10.738,17.583 -30.792,51.282 -88.773,75.251c-32.303,13.354 -58.504,14.141 -59.026,14.193Zm4.858,-240.612c-1.368,-16.17 -2.447,-44.026 -18.574,-61.3c-10.671,-11.43 -30.635,-14.996 -44.49,-13.166c-65.891,8.702 -69.955,86.137 -70.578,91.197c-1.814,14.731 -1.028,92.781 -0.392,99.975c5.827,65.905 39.018,89.26 66.624,92.533c44.101,5.229 58.915,-10.771 65.119,-55.234c6.507,-46.633 2.774,-141.694 2.291,-154.006Zm91.031,376.395c84.375,3.566 80.06,80.909 16.789,72.863c-16.398,-2.085 -36.887,-20.699 -18.594,-42.48c12.229,-14.56 -20.587,-21.658 -35.006,-2.146c-12.65,17.117 -6.779,39.809 -5.724,91.243c0.293,14.268 6.578,11.386 34.225,11.513c1.221,0.006 13.01,0.06 15.058,2.469c1.904,2.241 4.503,13.718 -6.78,14.108c-26.177,0.905 -41.65,-4.795 -42.382,9.38c-0.567,10.987 0.051,10.928 0.048,137.523c-0,16.878 7.895,12.374 34.041,12.847c14.17,0.256 14.127,15.373 -0.006,15.546c-10.995,0.135 -92.284,1.135 -137.454,-0.129c-12.551,-0.351 -13.539,-15.035 -0.02,-15.437c16.696,-0.496 24.09,3.922 24.108,-12.832c0.012,-10.997 0.144,-130.204 -0.07,-137.468c-0.362,-12.3 -13.452,-9.31 -24.052,-9.329c-1.102,-0.002 -11.664,-0.021 -13.648,-1.85c-4.303,-3.966 -3.946,-14.187 5.228,-14.938c9.249,-0.758 27.901,2.671 31.653,-3.812c3.818,-6.597 -11.505,-126.291 122.586,-127.073Zm-822.888,151.583c-2.471,-2.263 -0.063,-3.563 -2.516,-5.809c-0.225,-0.206 -0.336,-0.308 -3.816,0.011c-30.066,2.754 -50.455,2.373 -67.139,14.518c-31.131,22.66 -18.879,44.631 -36.974,45.011c-9.98,0.209 -12.105,-0.79 -12.03,-10.836c0.438,-58.233 0.097,-59.014 3.882,-62.268c3.194,-2.746 61.112,-0.957 170.652,-1.443c38.232,-0.17 43.606,-1.645 43.253,9.592c-0.329,10.455 -3.891,9.328 -119.133,149.233c-4.556,5.531 -20.015,18.406 -3.313,17.789c34.41,-1.272 42.326,-3.555 45.87,-4.576c29.648,-8.549 36.605,-18.912 43.319,-28.019c14.116,-19.147 12.789,-34.238 23.175,-35.876c12.371,-1.951 13.954,1.49 13.383,13.921c-2.634,57.379 -1.928,57.391 -2.657,62.328c-1.335,9.036 -9.446,7.701 -14.715,7.7c-191.676,-0.056 -191.62,1.111 -208.229,-0.173c-9.142,-0.707 -8.304,-11.638 -3.19,-19.119c0.044,-0.064 27.71,-33.896 62.891,-74.543c46.424,-53.637 44.643,-55.155 67.284,-77.439Zm1346.492,101.296c0.926,12.101 0.556,55.64 51.421,58.034c24.234,1.14 45.893,-11.195 49.452,-13.221c11.637,-6.627 25.157,-23.606 28.407,-29.079c4.787,-8.064 5.029,-10.791 13.956,-7.892c12.007,3.899 2.406,16.394 -3.841,25.764c-50.525,75.789 -233.023,45.428 -230.177,-62.857c1.697,-64.548 79.347,-115.148 179.435,-94.681c67.14,13.729 70.702,82.069 12.682,79.569c-38.368,-1.654 -51.022,-33.552 -28.572,-50.923c23.07,-17.852 -67.55,-37.185 -72.489,24.267c-2.49,30.981 -3.088,36.981 -0.276,71.021Zm-459.422,20.754c-0.118,-46.513 0.161,-109.949 -0.055,-116.773c-0.413,-13.045 -10.901,-8.912 -22.357,-9.58c-8.935,-0.521 -8.464,-9.455 -6.317,-12.453c3.043,-4.25 4.617,-3.973 14.58,-3.99c77.694,-0.139 77.711,-6.887 84.015,-4.527c6.278,2.35 3.021,28.437 3.148,34.902c0.136,6.92 6.077,5.466 7.876,3.472c0.132,-0.146 7.398,-26.085 34.612,-35.496c62.781,-21.71 87.761,37.136 56.49,59.083c-16.898,11.859 -62.591,4.322 -49.981,-31.706c2.684,-7.669 -3.407,-8.178 -6.801,-6.951c-39.794,14.383 -34.85,85.37 -34.685,144.871c0.046,16.534 7.508,12.663 34.479,12.802c17.562,0.091 11.612,14.773 4.064,15.384c-2.846,0.23 -138.749,0.197 -141.496,0.015c-0.841,-0.056 -7.35,-0.486 -7.513,-7.389c-0.25,-10.541 15.619,-7.873 19.954,-7.95c12.395,-0.221 10.009,-7.362 9.987,-33.714Zm-1160,49.046c-3.622,-0.031 -18.422,2.512 -18.55,-7.358c-0.211,-16.199 29.084,0.784 29.735,-16.749c0.415,-11.186 -0.031,-122.576 -0.074,-133.235c-0.052,-12.897 1.789,-17.73 -11.074,-17.93c-4.312,-0.067 -22.497,3.3 -19.456,-10.932c1.945,-9.105 15.811,-2.746 81.975,-7.981c17.779,-1.407 26.868,-10.248 27.318,7.64c0.658,26.145 -1.336,160.957 0.81,167.174c3.25,9.417 27.721,-2.115 27.317,12.029c-0.207,7.248 -8.714,7.41 -9.691,7.429c-29.395,0.562 -99.646,-0.015 -108.311,-0.087Zm1396.718,-74.04c-0.037,-45.087 0.035,-91.502 0.028,-91.716c-0.397,-12.581 -11.791,-9.287 -21.687,-9.571c-11.984,-0.343 -12.634,-15.825 -0.106,-16.345c29.248,-1.214 29.158,-0.004 58.511,-1.706c35.131,-2.036 37.197,-7.313 40.872,-1.132c2.2,3.702 0.498,159.011 0.943,170.45c0.46,11.838 14.771,8.562 20.522,8.851c11.687,0.588 8.67,13.086 3.697,14.684c-4.076,1.31 -123.939,0.512 -124.405,0.477c-0.819,-0.062 -7.067,-0.533 -7.182,-7.339c-0.198,-11.725 18.316,-6.974 23.715,-8.468c6.019,-1.665 5.053,-4.085 5.092,-58.187Zm-1346.743,-235.898c3.936,0.626 35.531,5.648 41.467,27.621c12.714,47.071 -77.013,60.728 -84.484,12.666c-5.463,-35.147 38.329,-39.79 43.017,-40.287Zm1428.109,35.904c-0.136,1.343 1.322,16.099 -16.535,27.702c-23.797,15.462 -72.368,5.686 -68.93,-31.769c2.655,-28.922 50.329,-43.585 75.6,-18.286c10.119,10.13 9.032,17.381 9.865,22.354Zm-1207.162,-36.366c12.568,-3.696 19.376,-7.422 38.889,-41.978c4.552,-8.062 55.848,-98.905 56.641,-100.924c4.35,-11.071 -1.222,-10.982 -56.513,-100.902c-2.813,-4.574 -23.629,-38.427 -35.768,-56.801c-21.385,-32.368 -35.715,-57.229 -39.998,-63.545c-9.485,-13.986 -44.412,-71.766 -52.17,-81.836c-21.63,-28.076 -50.936,-2.503 -52.396,-21.864c-0.806,-10.687 -0.966,-18.195 7.944,-19.073c6.259,-0.617 134.115,-0.127 145.777,-0.082c113.171,0.434 113.986,-0.808 116.93,2.261c3.342,3.484 2.175,18.508 0.699,21.726c-3.25,7.089 -54.515,0.459 -58.683,4.359c-2.937,2.748 2.315,11.243 2.837,12.087c86.778,140.342 85.668,140.894 93.852,152.666c5.634,8.103 8.807,4.676 13.617,-3.93c2.181,-3.902 24.136,-43.188 27.124,-48.851c39.639,-75.136 63.853,-101.693 37.152,-109.334c-18.172,-5.2 -35.753,-3.56 -41.816,-3.969c-12.236,-0.825 -8.922,-22.298 -5.044,-25.726c3.477,-3.073 119.355,-0.096 146.679,-1.118c14.805,-0.553 14.577,4.431 13.514,19.098c-0.937,12.934 -13.584,4.022 -38.74,11.792c-18.234,5.632 -19.946,14.571 -114.13,182.946c-82.175,146.905 -81,147.551 -88.613,160.051c-14.032,23.038 -32.856,59.545 -37.296,66.802c-10.316,16.861 -42.319,94.506 -118.272,101.869c-74.692,7.24 -102.845,-35.093 -91.958,-69.518c14.035,-44.38 90.952,-49.138 109.396,-4.252c8.289,20.171 12.381,17.013 20.345,18.047Zm1711.042,-171.98c-0.437,2.683 0.313,5.471 -0.124,8.155c-1.608,9.878 -5.215,7.18 -15.168,7.252c-17.137,0.125 -203.173,-0.131 -220.84,-0.155c-41.799,-0.057 -48.524,2.621 -48.348,-11.068c0.148,-11.501 -0.724,-15.358 10.871,-15.454c37.364,-0.31 45.035,3.514 45.594,-9.567c0.033,-0.762 0.283,-250.274 -0.158,-258.299c-0.651,-11.836 -9.777,-8.206 -45.455,-8.641c-12.081,-0.147 -10.877,-4.364 -10.826,-16.358c0.047,-11.233 3.785,-10.403 14.978,-10.634c31.929,-0.659 76.971,3.536 166.569,-7.025c12.896,-1.52 10.832,5.066 11.32,34.329c0.045,2.7 0.44,26.419 -0.243,33.754c-0.139,1.498 -1.602,3.581 2.482,5.917c0.449,0.257 3.163,1.809 5.496,-3.393c3.32,-7.403 11.011,-35.935 52.732,-59.785c32.209,-18.412 120.431,-24.769 131.395,40.281c7.755,46.012 -42.332,78.856 -86.778,58.943c-28.768,-12.889 -34.984,-45.929 -23.378,-62.78c12.974,-18.838 -31.265,-3.952 -45.038,17.558c-34.215,53.437 -26.764,99.75 -27.634,227.806c-0.008,1.25 -0.091,13.348 1.85,15.514c5.638,6.289 72.832,-1.341 78.743,4.533c2.588,2.572 1.442,3.058 1.959,9.118Zm-1895.83,-83.372c-0.244,5.334 -0.997,5.22 -4.307,66.601c-1.413,26.2 -0.382,31.228 -11.034,32.019c-26.257,1.951 -32.576,-3.409 -34.718,-5.226c-24.726,-20.974 -27.514,-24.004 -52.115,-12.75c-45.383,20.761 -90.375,32.987 -175.489,26.365c-10.181,-0.792 -62.325,-11.864 -91.113,-25.147c-65.613,-30.275 -94.785,-66.059 -115.492,-91.645c-24.328,-30.06 -48.811,-90.012 -50.76,-136.071c-2.324,-54.91 -0.323,-118.658 54.964,-194.314c9.665,-13.226 55.463,-67.358 123.15,-92.969c164.199,-62.128 255.983,8.583 274.928,9.055c17.752,0.442 26.635,-23.249 45.899,-24.297c23.829,-1.296 25.986,1.321 26.506,10.818c1.78,32.483 3.002,103.118 5.068,133.52c0.8,11.775 1.123,15.638 -10.784,15.632c-20.014,-0.01 -26.94,1.22 -30.469,-6.806c-2.426,-5.517 -30.465,-96.321 -115.49,-125.159c-21.283,-7.219 -132.684,-33.488 -164.197,57.298c-16.055,46.254 -14.791,83.041 -17.245,163.146c-0.252,8.222 0.162,116.85 4.097,149.762c9.053,75.722 25.467,111.549 77.503,125.076c20.115,5.229 78.148,9.444 124.366,-17.48c42.309,-24.648 64.919,-54.484 87.029,-99.587c11.568,-23.597 7.725,-30.364 21.954,-30.063c28.245,0.599 31.112,1.143 31.624,9.672c0.196,3.266 -2.552,8.186 -3.874,62.549Z" style="fill:#fefefe;"/><path d="M848.602,850.039c0.368,-10.788 -0.314,-10.607 -1.391,-21.321c1.077,10.713 1.912,10.539 1.391,21.321Z" style="fill:#1a4378;"/><path d="M847.211,828.718c-0.271,-2.698 -1.092,-3.704 1.579,-4.128c12.675,-2.013 9.401,27.334 9.124,29.812c-1.777,15.932 5.861,25.127 -0.087,25.858c-11.205,1.376 -9.384,-27.698 -9.226,-30.221c0.368,-10.788 -0.314,-10.607 -1.391,-21.321Zm0,0c-0.271,-2.698 -1.092,-3.704 1.579,-4.128c12.675,-2.013 9.401,27.334 9.124,29.812c-1.777,15.932 5.861,25.127 -0.087,25.858c-11.205,1.376 -9.384,-27.698 -9.226,-30.221c0.368,-10.788 -0.314,-10.607 -1.391,-21.321Z" style="fill:#fefefe;"/><path d="M2811.554,715.715c-18.624,1.875 -80.655,6.632 -121.046,-36.131c-8.259,-8.744 -8.402,-14.814 -13.476,-9.973c-1.977,1.886 -1.012,2.18 -0.75,4.87c2.839,29.139 -3.127,31.031 -5.59,31.812c-4.314,1.368 -189.694,0.991 -191.652,0.288c-5.503,-1.975 -5.479,-23.189 0.079,-25.389c5.342,-2.115 48.845,1.154 53.195,-2.107c5.601,-4.198 2.631,-6.103 2.999,-299.782c0.018,-14.662 0.217,-173.398 -0.012,-183.272c-0.275,-11.851 -8.949,-8.501 -48.677,-8.888c-12.595,-0.123 -12.908,-3.589 -12.598,-16.176c0.381,-15.437 10.744,-7.371 75.167,-10.762c12.543,-0.66 36.509,-0.253 66.307,-3.618c2.279,-0.257 36.778,-2.644 54.523,-6.092c7.65,-1.486 10.99,-3.884 11.709,3.943c0.126,1.376 0.102,232.999 0.016,237.379c-0.055,2.816 -0.215,5.629 -0.275,8.445c-0.391,18.18 12.076,0.92 17.944,-3.927c53.912,-44.534 191.673,-44.741 256.503,54.784c27.588,42.353 38.417,117.865 3.432,175.152c-10.738,17.583 -30.792,51.282 -88.773,75.251c-32.303,13.354 -58.504,14.141 -59.026,14.193Zm4.858,-240.612c-1.368,-16.17 -2.447,-44.026 -18.574,-61.3c-10.671,-11.43 -30.635,-14.996 -44.49,-13.166c-65.891,8.702 -69.955,86.137 -70.578,91.197c-1.814,14.731 -1.028,92.781 -0.392,99.975c5.827,65.905 39.018,89.26 66.624,92.533c44.101,5.229 58.915,-10.771 65.119,-55.234c6.507,-46.633 2.774,-141.694 2.291,-154.006Z" style="fill:#1a4176;"/><path d="M1897.76,608.427c-0.244,5.334 -0.997,5.22 -4.307,66.601c-1.413,26.2 -0.382,31.228 -11.034,32.019c-26.257,1.951 -32.576,-3.409 -34.718,-5.226c-24.726,-20.974 -27.514,-24.004 -52.115,-12.75c-45.383,20.761 -90.375,32.987 -175.489,26.365c-10.181,-0.792 -62.325,-11.864 -91.113,-25.147c-65.613,-30.275 -94.785,-66.059 -115.492,-91.645c-24.328,-30.06 -48.811,-90.012 -50.76,-136.071c-2.324,-54.91 -0.323,-118.658 54.964,-194.314c9.665,-13.226 55.463,-67.358 123.15,-92.969c164.199,-62.128 255.983,8.583 274.928,9.055c17.752,0.442 26.635,-23.249 45.899,-24.297c23.829,-1.296 25.986,1.321 26.506,10.818c1.78,32.483 3.002,103.118 5.068,133.52c0.8,11.775 1.123,15.638 -10.784,15.632c-20.014,-0.01 -26.94,1.22 -30.469,-6.806c-2.426,-5.517 -30.465,-96.321 -115.49,-125.159c-21.283,-7.219 -132.684,-33.488 -164.197,57.298c-16.055,46.254 -14.791,83.041 -17.245,163.146c-0.252,8.222 0.162,116.85 4.097,149.762c9.053,75.722 25.467,111.549 77.503,125.076c20.115,5.229 78.148,9.444 124.366,-17.48c42.309,-24.648 64.919,-54.484 87.029,-99.587c11.568,-23.597 7.725,-30.364 21.954,-30.063c28.245,0.599 31.112,1.143 31.624,9.672c0.196,3.266 -2.552,8.186 -3.874,62.549Z" style="fill:#194075;"/><path d="M1657.208,1004.147c0.048,0.066 -1.227,4.522 3.814,5.252c6.37,0.923 36.093,0.468 68.291,22.554c54.91,37.666 36.523,108.809 -26.26,129.961c-44.565,15.014 -59.643,12.061 -258.1,12.451c-24.219,0.048 -33.856,1.344 -34.1,-7.544c-0.342,-12.421 20.531,-7.409 38.283,-8.16c11.673,-0.493 9.534,-5.98 9.506,-50.19l-0.026,-216.669c0.002,-1.216 0.02,-13.007 -2.386,-15.012c-6.208,-5.173 -41.787,2.965 -44.629,-5.809c-3.718,-11.477 7.209,-11.942 8.378,-11.992c0.582,-0.025 185.141,-0.438 208.289,0.177c136.859,3.637 135.126,92.317 95.903,120.194c-25.915,18.419 -37.221,19.073 -57.84,22.126l-9.123,2.66Zm-45.277,-6.597c4.091,-0.898 34.027,-4.634 38.399,-43.076c1.574,-13.842 4.451,-49.01 -14.375,-66.036c-20.291,-18.351 -79.458,-12.725 -81.275,-11.341c-2.768,2.108 -2.702,2.885 -2.655,85.538c0.018,31.845 -2.371,37.365 9.601,37.5c33.863,0.383 46.34,-1.87 50.305,-2.586Zm4.065,22.139c-14.716,-2.295 -14.585,-3.164 -37.7,-3.256c-19.648,-0.078 -26.301,-3.082 -26.364,12.86c-0.038,9.68 -0.456,115.5 0.054,121.002c0.856,9.242 10.222,7.589 13.803,7.566c35.392,-0.23 86.882,3.455 92.796,-45.065c8.56,-70.228 -14.458,-87.002 -42.589,-93.107Z" style="fill:#193f73;"/><path d="M3468.583,500.289c0.905,14.236 4.25,27.247 -7.01,27.668c-15.073,0.563 -249.178,-1.081 -254.358,0.83c-4.428,1.633 -6.229,2.903 -4.098,58.859c1.871,49.129 12.144,104.667 108.412,98.584c64.267,-4.061 104.037,-42.146 117.095,-65.053c13.589,-23.838 14.266,-24.037 16.549,-24.706c2.53,-0.742 29.497,-0.397 23.409,15.657c-1.537,4.052 -15.22,31.141 -33.371,49.094c-45.474,44.977 -99.057,49.743 -114.91,52.9c-8.121,1.617 -72.921,9.076 -125.198,-6.16c-1.982,-0.578 -51.221,-10.487 -92.609,-44.298c-82.521,-67.414 -82.033,-199.357 31.133,-261.514c96.044,-52.752 234.274,-42.372 295.909,21.804c27.705,28.847 37.455,69.664 39.048,76.336Zm-266.085,-12.652c0.435,6.803 -1.454,7.603 2.224,11.032c2.915,2.718 4.715,1.614 102.73,2.033c9.591,0.041 20.342,2.499 20.763,-8.902c2.269,-61.515 -8.528,-74.067 -12.698,-78.914c-23.019,-26.759 -88.356,-24.043 -104.649,11.907c-8.736,19.276 -8.083,43.846 -8.369,62.844Z" style="fill:#194074;"/><path d="M2082.547,863.778c12.568,-3.696 19.376,-7.422 38.889,-41.978c4.552,-8.062 55.848,-98.905 56.641,-100.924c4.35,-11.071 -1.222,-10.982 -56.513,-100.902c-2.813,-4.574 -23.629,-38.427 -35.768,-56.801c-21.385,-32.368 -35.715,-57.229 -39.998,-63.545c-9.485,-13.986 -44.412,-71.766 -52.17,-81.836c-21.63,-28.076 -50.936,-2.503 -52.396,-21.864c-0.806,-10.687 -0.966,-18.195 7.944,-19.073c6.259,-0.617 134.115,-0.127 145.777,-0.082c113.171,0.434 113.986,-0.808 116.93,2.261c3.342,3.484 2.175,18.508 0.699,21.726c-3.25,7.089 -54.515,0.459 -58.683,4.359c-2.937,2.748 2.315,11.243 2.837,12.087c86.778,140.342 85.668,140.894 93.852,152.666c5.634,8.103 8.807,4.676 13.617,-3.93c2.181,-3.902 24.136,-43.188 27.124,-48.851c39.639,-75.136 63.853,-101.693 37.152,-109.334c-18.172,-5.2 -35.753,-3.56 -41.816,-3.969c-12.236,-0.825 -8.922,-22.298 -5.044,-25.726c3.477,-3.073 119.355,-0.096 146.679,-1.118c14.805,-0.553 14.577,4.431 13.514,19.098c-0.937,12.934 -13.584,4.022 -38.74,11.792c-18.234,5.632 -19.946,14.571 -114.13,182.946c-82.175,146.905 -81,147.551 -88.613,160.051c-14.032,23.038 -32.856,59.545 -37.296,66.802c-10.316,16.861 -42.319,94.506 -118.272,101.869c-74.692,7.24 -102.845,-35.093 -91.958,-69.518c14.035,-44.38 90.952,-49.138 109.396,-4.252c8.289,20.171 12.381,17.013 20.345,18.047Z" style="fill:#1a4175;"/><path d="M3793.59,691.799c-0.437,2.683 0.313,5.471 -0.124,8.155c-1.608,9.878 -5.215,7.18 -15.168,7.252c-17.137,0.125 -203.173,-0.131 -220.84,-0.155c-41.799,-0.057 -48.524,2.621 -48.348,-11.068c0.148,-11.501 -0.724,-15.358 10.871,-15.454c37.364,-0.31 45.035,3.514 45.594,-9.567c0.033,-0.762 0.283,-250.274 -0.158,-258.299c-0.651,-11.836 -9.777,-8.206 -45.455,-8.641c-12.081,-0.147 -10.877,-4.364 -10.826,-16.358c0.047,-11.233 3.785,-10.403 14.978,-10.634c31.929,-0.659 76.971,3.536 166.569,-7.025c12.896,-1.52 10.832,5.066 11.32,34.329c0.045,2.7 0.44,26.419 -0.243,33.754c-0.139,1.498 -1.602,3.581 2.482,5.917c0.449,0.257 3.163,1.809 5.496,-3.393c3.32,-7.403 11.011,-35.935 52.732,-59.785c32.209,-18.412 120.431,-24.769 131.395,40.281c7.755,46.012 -42.332,78.856 -86.778,58.943c-28.768,-12.889 -34.984,-45.929 -23.378,-62.78c12.974,-18.838 -31.265,-3.952 -45.038,17.558c-34.215,53.437 -26.764,99.75 -27.634,227.806c-0.008,1.25 -0.091,13.348 1.85,15.514c5.638,6.289 72.832,-1.341 78.743,4.533c2.588,2.572 1.442,3.058 1.959,9.118Z" style="fill:#194075;"/><path d="M2374.132,1174.329c-21.201,-0.061 -32.39,1.872 -32.725,-7.541c-0.646,-18.162 27.158,3.942 47.299,-27.887c8.142,-12.866 62.749,-127.89 68.062,-139.08c5.372,-11.316 64.328,-135.498 67.357,-141.35c5.921,-11.44 28.718,-6.082 31.421,-2.66c3.185,4.031 138.719,296.451 139.968,298.082c8.877,11.594 40.354,-2.666 40.114,12.899c-0.137,8.88 -10.834,7.538 -15.674,7.548c-12.995,0.028 -157.447,0.337 -162.437,-0.107c-1.068,-0.095 -11.084,-0.988 -7.347,-11.203c2.458,-6.718 23.037,-4.099 36.473,-4.349c14.836,-0.276 4.215,-10.83 -18.133,-62.074c-6.736,-15.445 -10.821,-11.685 -27.694,-11.67c-97.178,0.088 -98.773,-1.232 -102.206,4.117c-1.004,1.565 -21.001,43.864 -21.469,44.981c-12.149,29.022 29.583,24.354 36.13,24.781c9.133,0.596 7.893,9.424 6.984,11.547c-2.018,4.711 -3.836,3.839 -86.123,3.966Zm94.005,-145.832c-1.408,2.733 -17.144,33.284 -17.028,34.443c0.556,5.572 6.809,4.244 73.016,4.284c15.227,0.009 26.041,1.597 26.9,-4.067c1.248,-8.231 -3.851,-6.96 -41.025,-95.635c-3.603,-8.594 -5.861,-8.78 -6.749,-8.853c-4.615,-0.38 -3.382,1.911 -10.073,15.589c-17.98,36.753 -23.252,49.807 -25.041,54.239Z" style="fill:#183e71;"/><path d="M3724.235,1063.92c29.051,-1.678 35.552,-0.191 35.636,-13.808c0.216,-34.877 0.485,-45.583 -11.177,-53.469c-13.826,-9.35 -71.201,-6.714 -54.447,16.494c13.776,19.083 -3.736,45.654 -45.389,38.323c-25.908,-4.559 -43.195,-33.293 -2.77,-57.772c39.146,-23.703 175.498,-29.92 191.679,18.553c5.362,16.063 -1.062,115.434 3.715,125.135c9.28,18.848 25.94,3.094 31.616,6.238c19.214,10.645 -12.997,31.447 -36.656,34.536c-51.041,6.664 -68.709,-21.812 -70.991,-23.239c-7.397,-4.626 -22.958,17.694 -62.404,23.023c-94.307,12.739 -121.093,-54.711 -70.332,-89.922c20.587,-14.281 75.701,-22.826 91.52,-24.093Zm12.25,14.094c-5.17,0.695 -40.886,3.641 -48.356,30.897c-5.555,20.269 13.359,48.853 44.019,40.28c29.168,-8.156 27.654,-32.351 27.758,-57.374c0.005,-1.22 0.054,-13.106 -3.328,-14.886c-0.124,-0.065 -0.145,-1.803 -20.093,1.084Z" style="fill:#193f72;"/><path d="M2907.442,851.498c84.375,3.566 80.06,80.909 16.789,72.863c-16.398,-2.085 -36.887,-20.699 -18.594,-42.48c12.229,-14.56 -20.587,-21.658 -35.006,-2.146c-12.65,17.117 -6.779,39.809 -5.724,91.243c0.293,14.268 6.578,11.386 34.225,11.513c1.221,0.006 13.01,0.06 15.058,2.469c1.904,2.241 4.503,13.718 -6.78,14.108c-26.177,0.905 -41.65,-4.795 -42.382,9.38c-0.567,10.987 0.051,10.928 0.048,137.523c-0,16.878 7.895,12.374 34.041,12.847c14.17,0.256 14.127,15.373 -0.006,15.546c-10.995,0.135 -92.284,1.135 -137.454,-0.129c-12.551,-0.351 -13.539,-15.035 -0.02,-15.437c16.696,-0.496 24.09,3.922 24.108,-12.832c0.012,-10.997 0.144,-130.204 -0.07,-137.468c-0.362,-12.3 -13.452,-9.31 -24.052,-9.329c-1.102,-0.002 -11.664,-0.021 -13.648,-1.85c-4.303,-3.966 -3.946,-14.187 5.228,-14.938c9.249,-0.758 27.901,2.671 31.653,-3.812c3.818,-6.597 -11.505,-126.291 122.586,-127.073Z" style="fill:#183d71;"/><path d="M2084.555,1003.081c-2.471,-2.263 -0.063,-3.563 -2.516,-5.809c-0.225,-0.206 -0.336,-0.308 -3.816,0.011c-30.066,2.754 -50.455,2.373 -67.139,14.518c-31.131,22.66 -18.879,44.631 -36.974,45.011c-9.98,0.209 -12.105,-0.79 -12.03,-10.836c0.438,-58.233 0.097,-59.014 3.882,-62.268c3.194,-2.746 61.112,-0.957 170.652,-1.443c38.232,-0.17 43.606,-1.645 43.253,9.592c-0.329,10.455 -3.891,9.328 -119.133,149.233c-4.556,5.531 -20.015,18.406 -3.313,17.789c34.41,-1.272 42.326,-3.555 45.87,-4.576c29.648,-8.549 36.605,-18.912 43.319,-28.019c14.116,-19.147 12.789,-34.238 23.175,-35.876c12.371,-1.951 13.954,1.49 13.383,13.921c-2.634,57.379 -1.928,57.391 -2.657,62.328c-1.335,9.036 -9.446,7.701 -14.715,7.7c-191.676,-0.056 -191.62,1.111 -208.229,-0.173c-9.142,-0.707 -8.304,-11.638 -3.19,-19.119c0.044,-0.064 27.71,-33.896 62.891,-74.543c46.424,-53.637 44.643,-55.155 67.284,-77.439Z" style="fill:#183e71;"/><path d="M3431.047,1104.377c0.926,12.101 0.556,55.64 51.421,58.034c24.234,1.14 45.893,-11.195 49.452,-13.221c11.637,-6.627 25.157,-23.606 28.407,-29.079c4.787,-8.064 5.029,-10.791 13.956,-7.892c12.007,3.899 2.406,16.394 -3.841,25.764c-50.525,75.789 -233.023,45.428 -230.177,-62.857c1.697,-64.548 79.347,-115.148 179.435,-94.681c67.14,13.729 70.702,82.069 12.682,79.569c-38.368,-1.654 -51.022,-33.552 -28.572,-50.923c23.07,-17.852 -67.55,-37.185 -72.489,24.267c-2.49,30.981 -3.088,36.981 -0.276,71.021Z" style="fill:#193e71;"/><path d="M2971.624,1125.131c-0.118,-46.513 0.161,-109.949 -0.055,-116.773c-0.413,-13.045 -10.901,-8.912 -22.357,-9.58c-8.935,-0.521 -8.464,-9.455 -6.317,-12.453c3.043,-4.25 4.617,-3.973 14.58,-3.99c77.694,-0.139 77.711,-6.887 84.015,-4.527c6.278,2.35 3.021,28.437 3.148,34.902c0.136,6.92 6.077,5.466 7.876,3.472c0.132,-0.146 7.398,-26.085 34.612,-35.496c62.781,-21.71 87.761,37.136 56.49,59.083c-16.898,11.859 -62.591,4.322 -49.981,-31.706c2.684,-7.669 -3.407,-8.178 -6.801,-6.951c-39.794,14.383 -34.85,85.37 -34.685,144.871c0.046,16.534 7.508,12.663 34.479,12.802c17.562,0.091 11.612,14.773 4.064,15.384c-2.846,0.23 -138.749,0.197 -141.496,0.015c-0.841,-0.056 -7.35,-0.486 -7.513,-7.389c-0.25,-10.541 15.619,-7.873 19.954,-7.95c12.395,-0.221 10.009,-7.362 9.987,-33.714Z" style="fill:#183c6f;"/><path d="M1811.624,1174.177c-3.622,-0.031 -18.422,2.512 -18.55,-7.358c-0.211,-16.199 29.084,0.784 29.735,-16.749c0.415,-11.186 -0.031,-122.576 -0.074,-133.235c-0.052,-12.897 1.789,-17.73 -11.074,-17.93c-4.312,-0.067 -22.497,3.3 -19.456,-10.932c1.945,-9.105 15.811,-2.746 81.975,-7.981c17.779,-1.407 26.868,-10.248 27.318,7.64c0.658,26.145 -1.336,160.957 0.81,167.174c3.25,9.417 27.721,-2.115 27.317,12.029c-0.207,7.248 -8.714,7.41 -9.691,7.429c-29.395,0.562 -99.646,-0.015 -108.311,-0.087Z" style="fill:#193f72;"/><path d="M3208.342,1100.137c-0.037,-45.087 0.035,-91.502 0.028,-91.716c-0.397,-12.581 -11.791,-9.287 -21.687,-9.571c-11.984,-0.343 -12.634,-15.825 -0.106,-16.345c29.248,-1.214 29.158,-0.004 58.511,-1.706c35.131,-2.036 37.197,-7.313 40.872,-1.132c2.2,3.702 0.498,159.011 0.943,170.45c0.46,11.838 14.771,8.562 20.522,8.851c11.687,0.588 8.67,13.086 3.697,14.684c-4.076,1.31 -123.939,0.512 -124.405,0.477c-0.819,-0.062 -7.067,-0.533 -7.182,-7.339c-0.198,-11.725 18.316,-6.974 23.715,-8.468c6.019,-1.665 5.053,-4.085 5.092,-58.187Z" style="fill:#173c71;"/><path d="M1861.6,864.24c3.936,0.626 35.531,5.648 41.467,27.621c12.714,47.071 -77.013,60.728 -84.484,12.666c-5.463,-35.147 38.329,-39.79 43.017,-40.287Z" style="fill:#193f72;"/><path d="M3289.709,900.144c-0.136,1.343 1.322,16.099 -16.535,27.702c-23.797,15.462 -72.368,5.686 -68.93,-31.769c2.655,-28.922 50.329,-43.585 75.6,-18.286c10.119,10.13 9.032,17.381 9.865,22.354Z" style="fill:#1a3f72;"/><path d="M848.602,850.039c0.368,-10.788 -0.314,-10.607 -1.391,-21.321c1.077,10.713 1.912,10.539 1.391,21.321Zm0,0c0.368,-10.788 -0.314,-10.607 -1.391,-21.321c1.077,10.713 1.912,10.539 1.391,21.321Z" style="fill:#444b53;"/><path d="M1666.331,1001.487c-4.663,1.084 -4.4,1.566 -9.123,2.66c3.041,-0.887 6.082,-1.774 9.123,-2.66Z" style="fill:#497093;"/><path d="M836.6,324.798l0.622,8.509c-1.598,-1.842 -22.151,-25.529 -12.741,-27.685c4.706,-1.078 7.122,6.701 10.942,11.868c3.194,4.321 1.061,6.585 1.177,7.308Z" style="fill:#1a4378;"/><path d="M836.6,324.798l0.622,8.509c-1.598,-1.842 -22.151,-25.529 -12.741,-27.685c4.706,-1.078 7.122,6.701 10.942,11.868c3.194,4.321 1.061,6.585 1.177,7.308Z" style="fill:#1a4378;"/><path d="M0.628,629.348c16.377,-186.602 74.56,-281.324 125.431,-357.004c32.491,-48.336 94.941,-111.219 141.306,-145.211c162.896,-119.423 308.908,-125.71 373.427,-127.009c225.477,-4.54 375.644,116.952 402.963,139.021c223.763,180.766 242.799,416.09 248.56,469.186c6.825,62.899 -0.832,137.745 -3.659,154.779c-6.714,40.464 -12.447,78.486 -35.719,141.074c-16.463,44.274 -89.435,237.843 -307.434,355.351c-185.954,100.235 -343.734,75.326 -408.836,65.285c-102.01,-15.733 -218.667,-73.309 -294.868,-138.344c-224.169,-191.321 -233.722,-425.14 -238.517,-457.17c-2.733,-18.252 -4.198,-19.753 -2.654,-99.957Zm955.786,304.182c2.563,22.793 -0.026,22.914 -9.942,38.441c-7.576,11.865 -3.344,12.933 -2.498,32.365c0.041,0.944 -0.946,14.006 13.892,19.725c5.736,2.211 22.678,-5.315 27.333,-12.202c3.351,-4.958 0.974,-5.963 28.316,-69.235c9.951,-23.028 7.532,-31.197 16.146,-41.006c1.813,-2.064 6.633,-7.553 0.783,-34.336c-1.89,-8.65 -8.902,-20.151 -14.228,-4.478c-2.93,8.621 -8.703,8.276 -11.107,13.064c-4.863,9.685 -5.318,13.392 -21.805,21.927c-11.882,6.151 -26.589,5.912 -26.89,35.735Zm-119.814,-608.732c3.025,0.934 5.335,3.574 8.36,4.508c2.617,0.808 3.852,-3.786 3.972,-4.235c4.57,-17.013 -0.813,-29.978 -1.808,-32.373c-5.542,-13.347 -11.325,-5.583 -26.907,-10.054c-14.614,-4.193 -15.41,-5.422 -28.936,1.614c-14.644,7.618 -22.277,-2.375 -42.138,-5.14c-10.586,-1.474 -10.117,-3.006 -20.331,-5.917c-15.873,-4.524 -22.312,-16.971 -37.605,-9.619c-14.576,7.007 -10.316,15.435 -9.876,20.03c0.592,6.187 -4.613,11.304 -7.292,12.154c-6.708,2.129 -6.614,0.115 -12.655,-3.621c-15.301,-9.462 -27.782,-6.576 -32.019,-13.563c-3.03,-4.997 -0.619,-9.177 -22.11,-15.004c-6.581,-1.784 -12.492,0.849 -24.711,-5.269c-1.098,-0.55 -13.582,-6.801 -13.709,-6.907c-9.016,-7.512 14.105,-10.698 5.803,-26.611c-0.562,-1.078 -1.549,-1.926 -1.984,-3.061c-2.211,-5.769 1.619,-8.825 1.594,-9.054c-0.225,-2.023 -2.403,-3.287 -3.646,-4.899c-6.2,-8.042 -16.104,-4.252 -17.436,-3.742c-17.707,6.777 -18.779,0.215 -37.353,4.517c-10.872,2.518 -11.128,-3.007 -29.138,0.286c-1.98,0.362 -22.888,4.184 -24.697,4.824c-21.334,7.548 -29.312,19.218 -42.308,17.56c-17.694,-2.258 -18.904,1.713 -26.232,-4.059c-11.322,-8.918 -14.648,0.797 -18.9,10.657c-7.925,18.377 -23.344,13.412 -31.921,29.788c-6.892,13.159 -6.684,13.371 -7.192,28.306c-0.058,1.718 -4.095,20.176 -31.581,30.84c-13.137,5.097 -11.232,10.849 -17.853,18.638c-8.066,9.489 -8.204,9.429 -12.766,21.078c-4.565,11.659 -10.085,12.523 -14.439,21.825c-10.288,21.976 -10.941,21.629 -11.652,23.612c-4.738,13.226 6.065,12.349 5.317,25.631c-0.477,8.456 -0.071,8.354 1.611,16.626c2.942,14.468 -7.659,39.813 -8.818,41.98c-4.218,7.886 -4.24,8.3 -1.528,16.891c3.637,11.519 -4.749,20.931 10.418,31.931c13.308,9.651 11.279,11.59 22.787,23.279c9.176,9.32 8.501,17.492 10.827,23.028c4.159,9.902 5.175,9.326 14.477,14.898c24.529,14.692 20.599,20.417 46.076,33.279c13.755,6.944 13.833,-2.874 42.389,-6.81c24.087,-3.32 25.135,8.227 45.415,-0.407c18.945,-8.066 19,-7.864 20.619,-8.622c7.777,-3.641 7.434,-5.598 29.906,-6.568c24.41,-1.053 21.641,14.394 27.926,21.588c10.046,11.499 27.281,-3.577 38.667,3.255c20.759,12.457 8.083,38.761 7.575,41.444c-5.167,27.288 -7.305,26.848 -7.119,29.249c0.258,3.338 7.972,17.388 9.631,19.38c17.03,20.457 21.431,18.017 28.877,42.733c5.81,19.285 12.11,18.12 10.036,37.781c-1.814,17.193 14.66,27.646 0.481,45.516c-12.995,16.378 -15.587,31.991 -18.733,54.865c-2.477,18.014 6.382,22.327 9.631,29.574c18.518,41.302 18.825,41.268 18.95,45.186c0.469,14.717 0.427,14.661 3.827,29.071c2.399,10.166 -0.707,21.172 13.562,40.487c8.652,11.711 8.086,11.979 12.637,25.658c5.127,15.412 11.946,14.557 7.83,30.326c-0.152,0.581 -1.148,4.4 -0.358,7.494c3.132,12.256 3.665,12.866 15.242,18.04c11.885,5.312 26.364,-7.737 46.417,-6.863c29.057,1.266 40.983,-3.199 69.369,-32.966c19.052,-19.979 15.275,-23.239 26.398,-32.035c2.024,-1.6 11.165,-8.829 14.428,-28.84c1.329,-8.152 0.398,-8.2 0.515,-8.904c2.165,-13.021 26.693,-10.018 30.887,-24.773c5.62,-19.772 -1.168,-39.959 -1.377,-41.469c-2.466,-17.757 17.106,-22.813 22.274,-29.304c15.349,-19.276 25.612,-15.14 37.021,-25.512c17.572,-15.974 11.107,-24.906 14.218,-66.048c0.861,-11.385 -3.541,-10.842 -6.175,-16.463c-4.599,-9.813 -3.88,-31.006 -3.788,-33.719c0.208,-6.128 -4.838,-9.129 -5.835,-11.937c-2.015,-5.677 4.693,-20.168 7.82,-24.705c8.31,-12.059 7.799,-16.261 11.246,-21.405c4.828,-7.205 8.136,-4.36 21.982,-24.21c18.908,-27.106 39.774,-37.927 44.543,-42.432c29.467,-27.832 35.746,-45.085 39.102,-53.799c5.461,-14.182 7.603,-13.621 10.697,-21.472c7.186,-18.233 8.435,-17.958 9.844,-37.604c1.442,-20.11 -10.122,-5.576 -22.358,-3.667c-34.912,5.445 -34.567,7.038 -37.606,7.451c-14.572,1.98 -16.875,8.888 -26.897,-2.025c-5.464,-5.95 -5.86,-6.089 -5.986,-14.139c-0.091,-5.807 0.224,-6.288 -9.247,-16.232c-21.938,-23.036 -26.07,-22.896 -31.229,-27.216c-15.426,-12.916 -3.759,-24.365 -25.054,-41.919c-16.62,-13.701 -2.969,-37.259 -23.564,-54.828c-11.169,-9.528 -4.648,-13.439 -12.698,-25.638c-13.421,-20.341 -9.867,-22.205 -23.02,-42.708c-1.598,-1.842 -22.151,-25.529 -12.741,-27.685c4.706,-1.078 7.122,6.701 10.942,11.868c3.194,4.321 1.061,6.585 1.177,7.308Z" style="fill:#1a4378;"/></svg>